<svg width="18" height="18" viewBox="0 0 25 25" fill="none" xmlns="http://www.w3.org/2000/svg">
<g clip-path="url(#clip0_56_286)">
<path d="M24.7022 12.7339C24.7022 11.7097 24.6191 10.9622 24.4392 10.1871H12.7434V14.81H19.6086C19.4702 15.9589 18.7228 17.689 17.0618 18.8516L17.0385 19.0064L20.7365 21.8712L20.9927 21.8968C23.3457 19.7237 24.7022 16.5264 24.7022 12.7339Z" fill="#4285F4"/>
<path d="M12.7433 24.9141C16.1067 24.9141 18.9303 23.8068 20.9927 21.8968L17.0617 18.8516C16.0098 19.5852 14.598 20.0973 12.7433 20.0973C9.44915 20.0973 6.65325 17.9243 5.65659 14.9208L5.51051 14.9332L1.66528 17.9091L1.61499 18.0489C3.66346 22.1181 7.87119 24.9141 12.7433 24.9141Z" fill="#34A853"/>
<path d="M5.65658 14.9208C5.3936 14.1457 5.24141 13.3152 5.24141 12.457C5.24141 11.5988 5.3936 10.7684 5.64274 9.99331L5.63578 9.82823L1.74236 6.80457L1.61498 6.86516C0.770701 8.5538 0.286255 10.4501 0.286255 12.457C0.286255 14.464 0.770701 16.3602 1.61498 18.0488L5.65658 14.9208Z" fill="#FBBC05"/>
<path d="M12.7433 4.8167C15.0825 4.8167 16.6603 5.8271 17.56 6.67147L21.0757 3.23884C18.9165 1.23187 16.1067 0 12.7433 0C7.87119 0 3.66346 2.7959 1.61499 6.86517L5.64276 9.99332C6.65325 6.98979 9.44915 4.8167 12.7433 4.8167Z" fill="#EB4335"/>
</g>
<defs>
<clipPath id="clip0_56_286">
<rect width="25" height="25" fill="white"/>
</clipPath>
</defs>
</svg>
