<svg width="241" height="84" viewBox="0 0 241 84" fill="none" xmlns="http://www.w3.org/2000/svg">
<path d="M85.94 41.5826C85.94 64.548 66.7017 83.1652 42.97 83.1652C19.2383 83.1652 0 64.548 0 41.5826C0 18.6172 19.2383 0 42.97 0C66.7017 0 85.94 18.6172 85.94 41.5826Z" fill="black"/>
<path d="M24.8772 20.2171C23.7946 19.1345 22.0394 19.1345 20.9568 20.2171L3.31477 37.8591C2.23217 38.9418 2.23217 40.697 3.31477 41.7796C4.39737 42.8622 6.15261 42.8622 7.23521 41.7796L22.917 26.0978L38.5988 41.7796C39.6814 42.8622 41.4366 42.8622 42.5192 41.7796C43.6018 40.697 43.6018 38.9418 42.5192 37.8591L24.8772 20.2171ZM25.6892 60.9878L25.6892 22.1774H20.1448L20.1448 60.9878H25.6892Z" fill="white"/>
<path d="M58.1975 60.1759C59.2801 61.2585 61.0353 61.2585 62.1179 60.1759L79.7599 42.5339C80.8425 41.4513 80.8425 39.696 79.7599 38.6134C78.6773 37.5308 76.9221 37.5308 75.8395 38.6134L60.1577 54.2952L44.4759 38.6134C43.3933 37.5308 41.6381 37.5308 40.5555 38.6134C39.4729 39.696 39.4729 41.4513 40.5555 42.5339L58.1975 60.1759ZM57.3855 19.4052V58.2156H62.9299V19.4052H57.3855Z" fill="white"/>
<path d="M96.9727 50.2448V33.6463H90.0364V29.0423H109.119V33.6463H102.182V50.2448H96.9727ZM111.421 50.2448V29.0423H122.265C123.719 29.0423 125.011 29.3351 126.142 29.9207C127.273 30.4861 128.151 31.2837 128.777 32.3136C129.423 33.3232 129.746 34.4843 129.746 35.7968C129.746 37.1296 129.383 38.3209 128.656 39.371C127.929 40.421 126.97 41.2186 125.778 41.7638L130.413 50.2448H124.597L120.599 42.521H116.631V50.2448H111.421ZM116.631 38.2805H121.78C122.588 38.2805 123.234 38.0584 123.719 37.6142C124.223 37.1699 124.476 36.5944 124.476 35.8877C124.476 35.1809 124.223 34.6054 123.719 34.1612C123.234 33.717 122.588 33.4948 121.78 33.4948H116.631V38.2805ZM132.422 50.2448V29.0423H149.142V33.5554H137.632V37.3719H145.235V41.7335H137.632V45.7317H149.263V50.2448H132.422ZM152.329 50.2448V29.0423H157.236L166.868 41.3398V29.0423H171.775V50.2448H167.171L157.236 37.4627V50.2448H152.329ZM181.008 50.2448V33.6463H174.071V29.0423H193.154V33.6463H186.217V50.2448H181.008ZM204.785 50.5477C202.827 50.5477 201.12 50.164 199.666 49.3967C198.233 48.6092 197.122 47.4986 196.335 46.0649C195.547 44.6312 195.153 42.9451 195.153 41.0066V29.0423H200.363V41.0066C200.363 41.9556 200.545 42.7936 200.908 43.5206C201.272 44.2273 201.787 44.7725 202.453 45.1562C203.139 45.5399 203.927 45.7317 204.816 45.7317C205.724 45.7317 206.502 45.5399 207.148 45.1562C207.814 44.7725 208.329 44.2273 208.693 43.5206C209.056 42.7936 209.238 41.9556 209.238 41.0066V29.0423H214.447V41.0066C214.447 42.9249 214.044 44.6009 213.236 46.0346C212.448 47.4683 211.328 48.5789 209.874 49.3664C208.44 50.1539 206.744 50.5477 204.785 50.5477ZM225.485 50.5477C223.768 50.5477 222.072 50.2347 220.396 49.6087C218.72 48.9828 217.226 48.1145 215.913 47.0039L218.821 43.2177C220.114 44.2677 221.305 45.025 222.395 45.4894C223.486 45.9336 224.647 46.1558 225.879 46.1558C226.686 46.1558 227.373 46.075 227.938 45.9134C228.504 45.7519 228.938 45.5197 229.241 45.2168C229.544 44.8937 229.695 44.5201 229.695 44.0961C229.695 43.5105 229.473 43.0562 229.029 42.7331C228.584 42.41 227.827 42.1576 226.757 41.9758L222.092 41.158C220.376 40.8551 219.053 40.1989 218.125 39.1892C217.196 38.1796 216.731 36.8973 216.731 35.3425C216.731 33.9694 217.075 32.7881 217.761 31.7986C218.468 30.8092 219.467 30.052 220.76 29.5269C222.072 29.0019 223.627 28.7394 225.424 28.7394C226.999 28.7394 228.584 29.012 230.18 29.5572C231.775 30.0822 233.158 30.8193 234.329 31.7684L231.573 35.6151C229.392 33.9391 227.221 33.1011 225.061 33.1011C224.354 33.1011 223.738 33.1819 223.213 33.3434C222.708 33.4847 222.315 33.6968 222.032 33.9795C221.769 34.242 221.638 34.5651 221.638 34.9487C221.638 35.4737 221.83 35.8776 222.214 36.1603C222.617 36.443 223.264 36.6651 224.152 36.8267L228.544 37.5536C230.584 37.8767 232.128 38.5531 233.178 39.583C234.249 40.6128 234.784 41.9455 234.784 43.5812C234.784 45.0149 234.41 46.2567 233.663 47.3068C232.916 48.3366 231.846 49.1342 230.452 49.6996C229.059 50.265 227.403 50.5477 225.485 50.5477Z" fill="black"/>
</svg>
