<svg width="49" height="48" viewBox="0 0 49 48" fill="none" xmlns="http://www.w3.org/2000/svg">
<g clip-path="url(#clip0_92_124)">
<path d="M24.5003 30C27.8831 30 30.6253 27.3137 30.6253 24C30.6253 20.6863 27.8831 18 24.5003 18C21.1176 18 18.3753 20.6863 18.3753 24C18.3753 27.3137 21.1176 30 24.5003 30Z" stroke="#1E1E1E" stroke-width="4" stroke-linecap="round" stroke-linejoin="round"/>
<path d="M39.6087 30C39.3369 30.6032 39.2558 31.2724 39.3759 31.9212C39.496 32.57 39.8117 33.1686 40.2824 33.64L40.4049 33.76C40.7846 34.1315 41.0857 34.5726 41.2912 35.0582C41.4967 35.5438 41.6025 36.0643 41.6025 36.59C41.6025 37.1157 41.4967 37.6362 41.2912 38.1218C41.0857 38.6074 40.7846 39.0485 40.4049 39.42C40.0257 39.7919 39.5753 40.0869 39.0796 40.2882C38.5839 40.4895 38.0526 40.5931 37.5159 40.5931C36.9793 40.5931 36.448 40.4895 35.9523 40.2882C35.4566 40.0869 35.0062 39.7919 34.627 39.42L34.5045 39.3C34.0233 38.8389 33.4122 38.5296 32.7499 38.412C32.0876 38.2944 31.4045 38.3738 30.7887 38.64C30.1848 38.8935 29.6698 39.3145 29.307 39.8511C28.9443 40.3877 28.7496 41.0164 28.747 41.66V42C28.747 43.0609 28.3168 44.0783 27.551 44.8284C26.7852 45.5786 25.7466 46 24.6637 46C23.5807 46 22.5421 45.5786 21.7763 44.8284C21.0105 44.0783 20.5803 43.0609 20.5803 42V41.82C20.5645 41.158 20.3458 40.516 19.9525 39.9774C19.5593 39.4388 19.0097 39.0286 18.3753 38.8C17.7595 38.5338 17.0764 38.4544 16.4141 38.572C15.7518 38.6896 15.1407 38.9989 14.6595 39.46L14.537 39.58C14.1578 39.9519 13.7074 40.2469 13.2117 40.4482C12.716 40.6495 12.1846 40.7531 11.648 40.7531C11.1114 40.7531 10.5801 40.6495 10.0844 40.4482C9.58865 40.2469 9.13831 39.9519 8.75907 39.58C8.37942 39.2085 8.07824 38.7674 7.87275 38.2818C7.66726 37.7962 7.56149 37.2757 7.56149 36.75C7.56149 36.2243 7.66726 35.7038 7.87275 35.2182C8.07824 34.7326 8.37942 34.2915 8.75907 33.92L8.88157 33.8C9.35225 33.3286 9.668 32.73 9.78808 32.0812C9.90817 31.4324 9.8271 30.7632 9.55532 30.16C9.29652 29.5685 8.86678 29.064 8.31902 28.7086C7.77127 28.3533 7.12939 28.1626 6.47241 28.16H6.12533C5.04236 28.16 4.00375 27.7386 3.23797 26.9884C2.4722 26.2383 2.04199 25.2209 2.04199 24.16C2.04199 23.0991 2.4722 22.0817 3.23797 21.3316C4.00375 20.5814 5.04236 20.16 6.12533 20.16H6.30908C6.98486 20.1445 7.64025 19.9302 8.19006 19.545C8.73987 19.1598 9.15866 18.6215 9.39199 18C9.66377 17.3968 9.74484 16.7276 9.62475 16.0788C9.50466 15.43 9.18892 14.8314 8.71824 14.36L8.59574 14.24C8.21609 13.8685 7.91491 13.4274 7.70941 12.9418C7.50392 12.4562 7.39815 11.9357 7.39815 11.41C7.39815 10.8843 7.50392 10.3638 7.70941 9.87824C7.91491 9.39265 8.21609 8.95149 8.59574 8.58C8.97497 8.20809 9.42532 7.91306 9.92103 7.71176C10.4167 7.51046 10.9481 7.40685 11.4847 7.40685C12.0213 7.40685 12.5527 7.51046 13.0484 7.71176C13.5441 7.91306 13.9944 8.20809 14.3737 8.58L14.4962 8.7C14.9773 9.16107 15.5885 9.47037 16.2508 9.58801C16.9131 9.70565 17.5962 9.62623 18.212 9.36H18.3753C18.9792 9.10647 19.4942 8.68551 19.8569 8.14893C20.2197 7.61235 20.4144 6.98357 20.417 6.34V6C20.417 4.93913 20.8472 3.92172 21.613 3.17157C22.3787 2.42143 23.4174 2 24.5003 2C25.5833 2 26.6219 2.42143 27.3877 3.17157C28.1534 3.92172 28.5837 4.93913 28.5837 6V6.18C28.5863 6.82357 28.7809 7.45235 29.1437 7.98893C29.5065 8.52551 30.0215 8.94647 30.6253 9.2C31.2411 9.46623 31.9242 9.54565 32.5865 9.42801C33.2488 9.31037 33.86 9.00107 34.3412 8.54L34.4637 8.42C34.8429 8.04809 35.2932 7.75306 35.7889 7.55176C36.2847 7.35046 36.816 7.24685 37.3526 7.24685C37.8892 7.24685 38.4206 7.35046 38.9163 7.55176C39.412 7.75306 39.8623 8.04809 40.2416 8.42C40.6212 8.79149 40.9224 9.23265 41.1279 9.71824C41.3334 10.2038 41.4392 10.7243 41.4392 11.25C41.4392 11.7757 41.3334 12.2962 41.1279 12.7818C40.9224 13.2674 40.6212 13.7085 40.2416 14.08L40.1191 14.2C39.6484 14.6714 39.3327 15.27 39.2126 15.9188C39.0925 16.5676 39.1735 17.2368 39.4453 17.84V18C39.7041 18.5915 40.1339 19.096 40.6816 19.4514C41.2294 19.8067 41.8713 19.9974 42.5282 20H42.8753C43.9583 20 44.9969 20.4214 45.7627 21.1716C46.5284 21.9217 46.9587 22.9391 46.9587 24C46.9587 25.0609 46.5284 26.0783 45.7627 26.8284C44.9969 27.5786 43.9583 28 42.8753 28H42.6916C42.0346 28.0026 41.3927 28.1933 40.845 28.5486C40.2972 28.904 39.8675 29.4085 39.6087 30Z" stroke="#1E1E1E" stroke-width="4" stroke-linecap="round" stroke-linejoin="round"/>
</g>
<defs>
<clipPath id="clip0_92_124">
<rect width="49" height="48" fill="white"/>
</clipPath>
</defs>
</svg>
