<svg width="50" height="48" viewBox="0 0 50 48" fill="none" xmlns="http://www.w3.org/2000/svg">
<path d="M25 42C19.7917 42 15.3646 40.25 11.7188 36.75C8.07292 33.25 6.25 29 6.25 24C6.25 19 8.07292 14.75 11.7188 11.25C15.3646 7.75 19.7917 6 25 6C25.4861 6 25.9635 6.01667 26.4323 6.05C26.901 6.08333 27.3611 6.13333 27.8125 6.2C26.3889 7.16667 25.2517 8.425 24.401 9.975C23.5503 11.525 23.125 13.2 23.125 15C23.125 18 24.2188 20.55 26.4062 22.65C28.5938 24.75 31.25 25.8 34.375 25.8C36.2847 25.8 38.0382 25.3917 39.6354 24.575C41.2326 23.7583 42.5347 22.6667 43.5417 21.3C43.6111 21.7333 43.6632 22.175 43.6979 22.625C43.7326 23.075 43.75 23.5333 43.75 24C43.75 29 41.9271 33.25 38.2812 36.75C34.6354 40.25 30.2083 42 25 42ZM25 38C28.0556 38 30.7986 37.1917 33.2292 35.575C35.6597 33.9583 37.4306 31.85 38.5417 29.25C37.8472 29.4167 37.1528 29.55 36.4583 29.65C35.7639 29.75 35.0694 29.8 34.375 29.8C30.1042 29.8 26.467 28.3583 23.4635 25.475C20.4601 22.5917 18.9583 19.1 18.9583 15C18.9583 14.3333 19.0104 13.6667 19.1146 13C19.2188 12.3333 19.3576 11.6667 19.5312 11C16.8229 12.0667 14.6267 13.7667 12.9427 16.1C11.2587 18.4333 10.4167 21.0667 10.4167 24C10.4167 27.8667 11.8403 31.1667 14.6875 33.9C17.5347 36.6333 20.9722 38 25 38Z" fill="#1D1B20"/>
</svg>
