<svg width="176" height="38" viewBox="0 0 176 38" fill="none" xmlns="http://www.w3.org/2000/svg">
<path d="M8.96257 37V17.1154H0.653143V11.6H23.5131V17.1154H15.2037V37H8.96257ZM26.2714 37V11.6H39.2617C41.0034 11.6 42.5516 11.9508 43.9063 12.6523C45.261 13.3296 46.3132 14.2851 47.0631 15.5189C47.8372 16.7284 48.2243 18.1193 48.2243 19.6917C48.2243 21.2883 47.7889 22.7155 46.918 23.9734C46.0471 25.2313 44.8981 26.1869 43.4709 26.84L49.0226 37H42.0557L37.266 27.7471H32.5126V37H26.2714ZM32.5126 22.6671H38.6811C39.6488 22.6671 40.4229 22.401 41.0034 21.8689C41.6082 21.3367 41.9106 20.6472 41.9106 19.8006C41.9106 18.9539 41.6082 18.2645 41.0034 17.7323C40.4229 17.2001 39.6488 16.934 38.6811 16.934H32.5126V22.6671ZM51.4305 37V11.6H71.4602V17.0066H57.6716V21.5786H66.7793V26.8037H57.6716V31.5934H71.6053V37H51.4305ZM75.2784 37V11.6H81.1567L92.6956 26.332V11.6H98.5738V37H93.0584L81.1567 21.6874V37H75.2784ZM109.634 37V17.1154H101.325V11.6H124.185V17.1154H115.875V37H109.634ZM138.119 37.3629C135.773 37.3629 133.728 36.9032 131.987 35.984C130.269 35.0406 128.939 33.7101 127.995 31.9926C127.052 30.275 126.58 28.2551 126.58 25.9329V11.6H132.821V25.9329C132.821 27.0698 133.039 28.0737 133.474 28.9446C133.91 29.7912 134.527 30.4444 135.325 30.904C136.148 31.3636 137.091 31.5934 138.155 31.5934C139.244 31.5934 140.175 31.3636 140.949 30.904C141.748 30.4444 142.364 29.7912 142.8 28.9446C143.235 28.0737 143.453 27.0698 143.453 25.9329V11.6H149.694V25.9329C149.694 28.231 149.21 30.2388 148.243 31.9563C147.299 33.6738 145.957 35.0043 144.215 35.9477C142.498 36.8911 140.466 37.3629 138.119 37.3629ZM162.917 37.3629C160.86 37.3629 158.828 36.9879 156.821 36.238C154.813 35.4881 153.023 34.4479 151.45 33.1174L154.934 28.5817C156.482 29.8396 157.909 30.7468 159.216 31.3031C160.522 31.8353 161.913 32.1014 163.388 32.1014C164.356 32.1014 165.178 32.0047 165.856 31.8111C166.533 31.6176 167.053 31.3394 167.416 30.9766C167.779 30.5895 167.96 30.142 167.96 29.634C167.96 28.9325 167.694 28.3882 167.162 28.0011C166.63 27.6141 165.723 27.3117 164.441 27.094L158.853 26.1143C156.796 25.7514 155.212 24.9652 154.099 23.7557C152.986 22.5462 152.43 21.0101 152.43 19.1474C152.43 17.5025 152.841 16.0873 153.664 14.902C154.51 13.7167 155.708 12.8095 157.256 12.1806C158.828 11.5516 160.691 11.2371 162.844 11.2371C164.731 11.2371 166.63 11.5637 168.541 12.2169C170.452 12.8458 172.109 13.7288 173.512 14.8657L170.21 19.474C167.598 17.4662 164.997 16.4623 162.409 16.4623C161.562 16.4623 160.824 16.559 160.195 16.7526C159.59 16.9219 159.119 17.1759 158.78 17.5146C158.466 17.829 158.308 18.2161 158.308 18.6757C158.308 19.3047 158.538 19.7885 158.998 20.1271C159.482 20.4658 160.256 20.7319 161.32 20.9254L166.582 21.7963C169.025 22.1833 170.875 22.9937 172.133 24.2274C173.415 25.4611 174.056 27.0577 174.056 29.0171C174.056 30.7347 173.609 32.2224 172.714 33.4803C171.819 34.714 170.537 35.6695 168.868 36.3469C167.198 37.0242 165.215 37.3629 162.917 37.3629Z" fill="black"/>
</svg>
