<svg width="249" height="86" viewBox="0 0 249 86" fill="none" xmlns="http://www.w3.org/2000/svg">
<path d="M104.973 52.2446V35.6461H98.0364V31.0421H117.119V35.6461H110.182V52.2446H104.973ZM119.421 52.2446V31.0421H130.265C131.719 31.0421 133.011 31.3349 134.142 31.9205C135.273 32.4859 136.151 33.2835 136.777 34.3134C137.423 35.323 137.746 36.4841 137.746 37.7966C137.746 39.1294 137.383 40.3207 136.656 41.3708C135.929 42.4208 134.97 43.2184 133.778 43.7636L138.413 52.2446H132.597L128.599 44.5209H124.631V52.2446H119.421ZM124.631 40.2804H129.78C130.588 40.2804 131.234 40.0582 131.719 39.614C132.223 39.1698 132.476 38.5943 132.476 37.8875C132.476 37.1808 132.223 36.6053 131.719 36.161C131.234 35.7168 130.588 35.4947 129.78 35.4947H124.631V40.2804ZM140.422 52.2446V31.0421H157.142V35.5552H145.632V39.3717H153.235V43.7333H145.632V47.7315H157.263V52.2446H140.422ZM160.329 52.2446V31.0421H165.236L174.868 43.3396V31.0421H179.775V52.2446H175.171L165.236 39.4626V52.2446H160.329ZM189.008 52.2446V35.6461H182.071V31.0421H201.154V35.6461H194.217V52.2446H189.008ZM212.785 52.5475C210.827 52.5475 209.12 52.1639 207.666 51.3965C206.233 50.609 205.122 49.4984 204.335 48.0647C203.547 46.631 203.153 44.9449 203.153 43.0064V31.0421H208.363V43.0064C208.363 43.9555 208.545 44.7935 208.908 45.5204C209.272 46.2272 209.787 46.7724 210.453 47.156C211.139 47.5397 211.927 47.7315 212.816 47.7315C213.724 47.7315 214.502 47.5397 215.148 47.156C215.814 46.7724 216.329 46.2272 216.693 45.5204C217.056 44.7935 217.238 43.9555 217.238 43.0064V31.0421H222.447V43.0064C222.447 44.9247 222.044 46.6007 221.236 48.0344C220.448 49.4681 219.328 50.5787 217.874 51.3662C216.44 52.1538 214.744 52.5475 212.785 52.5475ZM233.485 52.5475C231.768 52.5475 230.072 52.2345 228.396 51.6086C226.72 50.9826 225.226 50.1143 223.913 49.0037L226.821 45.2175C228.114 46.2675 229.305 47.0248 230.395 47.4892C231.486 47.9335 232.647 48.1556 233.879 48.1556C234.686 48.1556 235.373 48.0748 235.938 47.9133C236.504 47.7517 236.938 47.5195 237.241 47.2166C237.544 46.8935 237.695 46.52 237.695 46.0959C237.695 45.5103 237.473 45.056 237.029 44.7329C236.584 44.4098 235.827 44.1574 234.757 43.9757L230.092 43.1578C228.376 42.855 227.053 42.1987 226.125 41.189C225.196 40.1794 224.731 38.8972 224.731 37.3423C224.731 35.9692 225.075 34.7879 225.761 33.7985C226.468 32.809 227.467 32.0518 228.76 31.5268C230.072 31.0017 231.627 30.7392 233.424 30.7392C234.999 30.7392 236.584 31.0118 238.18 31.5571C239.775 32.0821 241.158 32.8191 242.329 33.7682L239.573 37.6149C237.392 35.9389 235.221 35.1009 233.061 35.1009C232.354 35.1009 231.738 35.1817 231.213 35.3432C230.708 35.4846 230.315 35.6966 230.032 35.9793C229.769 36.2418 229.638 36.5649 229.638 36.9485C229.638 37.4736 229.83 37.8774 230.214 38.1601C230.617 38.4428 231.264 38.6649 232.152 38.8265L236.544 39.5534C238.584 39.8765 240.128 40.553 241.178 41.5828C242.249 42.6126 242.784 43.9454 242.784 45.581C242.784 47.0147 242.41 48.2565 241.663 49.3066C240.916 50.3364 239.846 51.134 238.452 51.6994C237.059 52.2648 235.403 52.5475 233.485 52.5475Z" fill="black"/>
<path d="M85.94 42.97C85.94 66.7017 66.7017 85.94 42.97 85.94C19.2383 85.94 0 66.7017 0 42.97C0 19.2383 19.2383 0 42.97 0C66.7017 0 85.94 19.2383 85.94 42.97Z" fill="black"/>
<path d="M24.9431 20.8925C23.8244 19.7738 22.0106 19.7738 20.8919 20.8925L2.66123 39.1231C1.54251 40.2418 1.54251 42.0556 2.66123 43.1744C3.77995 44.2931 5.59376 44.2931 6.71248 43.1744L22.9175 26.9694L39.1225 43.1744C40.2412 44.2931 42.055 44.2931 43.1737 43.1744C44.2925 42.0556 44.2925 40.2418 43.1737 39.1231L24.9431 20.8925ZM25.7821 63.0234L25.7821 22.9181H20.0528L20.0528 63.0234H25.7821Z" fill="white"/>
<path d="M58.1323 62.1842C59.2511 63.3029 61.0649 63.3029 62.1836 62.1842L80.4142 43.9536C81.5329 42.8348 81.5329 41.021 80.4142 39.9023C79.2955 38.7836 77.4817 38.7836 76.363 39.9023L60.158 56.1073L43.953 39.9023C42.8342 38.7836 41.0204 38.7836 39.9017 39.9023C38.783 41.021 38.783 42.8348 39.9017 43.9536L58.1323 62.1842ZM57.2933 20.0532V60.1586H63.0226V20.0532H57.2933Z" fill="white"/>
</svg>
